<?xml version="1.0" encoding="UTF-8"?>
<svg width="18px" height="18px" viewBox="0 0 18 18" version="1.1" xmlns="http://www.w3.org/2000/svg" xmlns:xlink="http://www.w3.org/1999/xlink">
    <title>add</title>
    <g id="Ver2" stroke="none" stroke-width="1" fill="none" fill-rule="evenodd" fill-opacity="0.8" opacity="0.4">
        <g id="A6" transform="translate(-1525.000000, -911.000000)" fill="#FFFFFF">
            <path d="M1534,911 C1538.97056,911 1543,915.029437 1543,920 C1543,924.970563 1538.97056,929 1534,929 C1529.02944,929 1525,924.970563 1525,920 C1525,915.029437 1529.02944,911 1534,911 Z M1534,915 C1533.44772,915 1533,915.447715 1533,916 L1533,916 L1533,919 L1530,919 C1529.44772,919 1529,919.447715 1529,920 C1529,920.552285 1529.44772,921 1530,921 L1530,921 L1533,921 L1533,924 C1533,924.552285 1533.44772,925 1534,925 C1534.55228,925 1535,924.552285 1535,924 L1535,924 L1535,921 L1538,921 C1538.55228,921 1539,920.552285 1539,920 C1539,919.447715 1538.55228,919 1538,919 L1538,919 L1535,919 L1535,916 C1535,915.447715 1534.55228,915 1534,915 Z" id="add"></path>
        </g>
    </g>
</svg>