<?xml version="1.0" encoding="UTF-8"?>
<svg width="18px" height="18px" viewBox="0 0 18 18" version="1.1" xmlns="http://www.w3.org/2000/svg" xmlns:xlink="http://www.w3.org/1999/xlink">
    <title>add_highlighted</title>
    <g id="Ver2" stroke="none" stroke-width="1" fill="none" fill-rule="evenodd" fill-opacity="0.8">
        <g id="A6" transform="translate(-1524.000000, -874.000000)" fill="#FFFFFF">
            <path d="M1533,874 C1537.97056,874 1542,878.029437 1542,883 C1542,887.970563 1537.97056,892 1533,892 C1528.02944,892 1524,887.970563 1524,883 C1524,878.029437 1528.02944,874 1533,874 Z M1533,878 C1532.44772,878 1532,878.447715 1532,879 L1532,879 L1532,882 L1529,882 C1528.44772,882 1528,882.447715 1528,883 C1528,883.552285 1528.44772,884 1529,884 L1529,884 L1532,884 L1532,887 C1532,887.552285 1532.44772,888 1533,888 C1533.55228,888 1534,887.552285 1534,887 L1534,887 L1534,884 L1537,884 C1537.55228,884 1538,883.552285 1538,883 C1538,882.447715 1537.55228,882 1537,882 L1537,882 L1534,882 L1534,879 C1534,878.447715 1533.55228,878 1533,878 Z" id="add_highlighted"></path>
        </g>
    </g>
</svg>