<?xml version="1.0" encoding="UTF-8"?>
<svg width="20px" height="14px" viewBox="0 0 20 14" version="1.1" xmlns="http://www.w3.org/2000/svg" xmlns:xlink="http://www.w3.org/1999/xlink">
    <title>arrow_left_highlighted</title>
    <g id="Ver2" stroke="none" stroke-width="1" fill="none" fill-rule="evenodd" fill-opacity="0.8">
        <g id="A0-Copy-2" transform="translate(-552.000000, -235.000000)" fill="#FFFFFF">
            <path d="M552.7,235 C553.086599,235 553.4,235.313401 553.4,235.7 L553.4,239.969 L560.373909,235.943782 C560.708714,235.750483 561.136827,235.865195 561.330127,236.2 C561.523427,236.534805 561.408714,236.962918 561.073909,237.156218 L554.416,241 L571.3,241 C571.686599,241 572,241.313401 572,241.7 C572,242.086599 571.686599,242.4 571.3,242.4 L554.417,242.4 L561.073909,246.243782 C561.408714,246.437082 561.523427,246.865195 561.330127,247.2 C561.136827,247.534805 560.708714,247.649517 560.373909,247.456218 L553.4,243.43 L553.4,248.3 C553.4,248.686599 553.086599,249 552.7,249 C552.313401,249 552,248.686599 552,248.3 L552,235.7 C552,235.313401 552.313401,235 552.7,235 Z" id="arrow_left_highlighted"></path>
        </g>
    </g>
</svg>