<svg width="20" height="14" viewBox="0 0 20 14" fill="none" xmlns="http://www.w3.org/2000/svg">
<path d="M20 13C20 13.5523 19.5523 14 19 14C18.4477 14 18 13.5523 18 13V1C18 0.447723 18.4477 0 19 0C19.5523 0 20 0.447723 20 1V13Z" fill="white"/>
<path d="M10.5 8V11.2415C10.5 11.6449 10.9531 11.8822 11.2847 11.6525L17.4068 7.411C17.6938 7.21216 17.6938 6.78784 17.4068 6.589L11.2847 2.34753C10.9531 2.1178 10.5 2.35512 10.5 2.75853V6H1C0.447716 6 0 6.44771 0 7C0 7.55229 0.447716 8 1 8H10.5Z" fill="white"/>
</svg>
