<?xml version="1.0" encoding="UTF-8"?>
<svg width="20px" height="14px" viewBox="0 0 20 14" version="1.1" xmlns="http://www.w3.org/2000/svg" xmlns:xlink="http://www.w3.org/1999/xlink">
    <title>arrow_right</title>
    <g id="Ver2" stroke="none" stroke-width="1" fill="none" fill-rule="evenodd" fill-opacity="0.8" opacity="0.4">
        <g id="A0-Copy-2" transform="translate(-580.000000, -220.000000)" fill="#FFFFFF">
            <path d="M580.7,220 C581.086599,220 581.4,220.313401 581.4,220.7 L581.4,224.969 L588.373909,220.943782 C588.708714,220.750483 589.136827,220.865195 589.330127,221.2 C589.523427,221.534805 589.408714,221.962918 589.073909,222.156218 L582.416,226 L599.3,226 C599.686599,226 600,226.313401 600,226.7 C600,227.086599 599.686599,227.4 599.3,227.4 L582.417,227.4 L589.073909,231.243782 C589.408714,231.437082 589.523427,231.865195 589.330127,232.2 C589.136827,232.534805 588.708714,232.649517 588.373909,232.456218 L581.4,228.43 L581.4,233.3 C581.4,233.686599 581.086599,234 580.7,234 C580.313401,234 580,233.686599 580,233.3 L580,220.7 C580,220.313401 580.313401,220 580.7,220 Z" id="arrow_right" transform="translate(590.000000, 227.000000) scale(-1, 1) translate(-590.000000, -227.000000) "></path>
        </g>
    </g>
</svg>