<?xml version="1.0" encoding="UTF-8"?>
<svg width="20px" height="14px" viewBox="0 0 20 14" version="1.1" xmlns="http://www.w3.org/2000/svg" xmlns:xlink="http://www.w3.org/1999/xlink">
    <title>arrow_left</title>
    <g id="Ver2" stroke="none" stroke-width="1" fill="none" fill-rule="evenodd" opacity="0.4">
        <g id="A0-Copy-2" transform="translate(-552.000000, -250.000000)" fill="#FFFFFF">
            <path d="M553,250 C553.552285,250 554,250.447715 554,251 L554,254.576 L559.964102,251.133975 C560.442394,250.857832 561.053985,251.021707 561.330127,251.5 C561.606269,251.978293 561.442394,252.589883 560.964102,252.866025 L555.535,256 L571,256 C571.552285,256 572,256.447715 572,257 C572,257.552285 571.552285,258 571,258 L555.537,258 L560.964102,261.133975 C561.442394,261.410117 561.606269,262.021707 561.330127,262.5 C561.053985,262.978293 560.442394,263.142168 559.964102,262.866025 L554,259.423 L554,263 C554,263.552285 553.552285,264 553,264 C552.447715,264 552,263.552285 552,263 L552,251 C552,250.447715 552.447715,250 553,250 Z" id="arrow_left"></path>
        </g>
    </g>
</svg>