<?xml version="1.0" encoding="UTF-8"?>
<svg width="20px" height="14px" viewBox="0 0 20 14" version="1.1" xmlns="http://www.w3.org/2000/svg" xmlns:xlink="http://www.w3.org/1999/xlink">
    <title>arrow_right_highlighted</title>
    <g id="Ver2" stroke="none" stroke-width="1" fill="none" fill-rule="evenodd" fill-opacity="0.8">
        <g id="A0-Copy-2" transform="translate(-580.000000, -235.000000)" fill="#FFFFFF">
            <path d="M581,235 C581.552285,235 582,235.447715 582,236 L582,239.576 L587.964102,236.133975 C588.442394,235.857832 589.053985,236.021707 589.330127,236.5 C589.606269,236.978293 589.442394,237.589883 588.964102,237.866025 L583.535,241 L599,241 C599.552285,241 600,241.447715 600,242 C600,242.552285 599.552285,243 599,243 L583.537,243 L588.964102,246.133975 C589.442394,246.410117 589.606269,247.021707 589.330127,247.5 C589.053985,247.978293 588.442394,248.142168 587.964102,247.866025 L582,244.423 L582,248 C582,248.552285 581.552285,249 581,249 C580.447715,249 580,248.552285 580,248 L580,236 C580,235.447715 580.447715,235 581,235 Z" id="arrow_right_highlighted" transform="translate(590.000000, 242.000000) scale(-1, 1) translate(-590.000000, -242.000000) "></path>
        </g>
    </g>
</svg>