<?xml version="1.0" encoding="UTF-8"?>
<svg width="20px" height="14px" viewBox="0 0 20 14" version="1.1" xmlns="http://www.w3.org/2000/svg" xmlns:xlink="http://www.w3.org/1999/xlink">
    <title>arrow_right_highlighted</title>
    <g id="Ver2" stroke="none" stroke-width="1" fill="none" fill-rule="evenodd" fill-opacity="0.8">
        <g id="A0-Copy-2" transform="translate(-580.000000, -235.000000)" fill="#FFFFFF">
            <path d="M580.7,235 C581.086599,235 581.4,235.313401 581.4,235.7 L581.4,239.969 L588.373909,235.943782 C588.708714,235.750483 589.136827,235.865195 589.330127,236.2 C589.523427,236.534805 589.408714,236.962918 589.073909,237.156218 L582.416,241 L599.3,241 C599.686599,241 600,241.313401 600,241.7 C600,242.086599 599.686599,242.4 599.3,242.4 L582.417,242.4 L589.073909,246.243782 C589.408714,246.437082 589.523427,246.865195 589.330127,247.2 C589.136827,247.534805 588.708714,247.649517 588.373909,247.456218 L581.4,243.43 L581.4,248.3 C581.4,248.686599 581.086599,249 580.7,249 C580.313401,249 580,248.686599 580,248.3 L580,235.7 C580,235.313401 580.313401,235 580.7,235 Z" id="arrow_right_highlighted" transform="translate(590.000000, 242.000000) scale(-1, 1) translate(-590.000000, -242.000000) "></path>
        </g>
    </g>
</svg>