<?xml version="1.0" encoding="UTF-8"?>
<svg width="20px" height="14px" viewBox="0 0 20 14" version="1.1" xmlns="http://www.w3.org/2000/svg" xmlns:xlink="http://www.w3.org/1999/xlink">
    <title>arrow_right</title>
    <g id="Ver2" stroke="none" stroke-width="1" fill="none" fill-rule="evenodd" opacity="0.4">
        <g id="A0-Copy-2" transform="translate(-579.000000, -250.000000)" fill="#FFFFFF">
            <path d="M580,250 C580.552285,250 581,250.447715 581,251 L581,254.576 L586.964102,251.133975 C587.442394,250.857832 588.053985,251.021707 588.330127,251.5 C588.606269,251.978293 588.442394,252.589883 587.964102,252.866025 L582.535,256 L598,256 C598.552285,256 599,256.447715 599,257 C599,257.552285 598.552285,258 598,258 L582.537,258 L587.964102,261.133975 C588.442394,261.410117 588.606269,262.021707 588.330127,262.5 C588.053985,262.978293 587.442394,263.142168 586.964102,262.866025 L581,259.423 L581,263 C581,263.552285 580.552285,264 580,264 C579.447715,264 579,263.552285 579,263 L579,251 C579,250.447715 579.447715,250 580,250 Z" id="arrow_right" transform="translate(589.000000, 257.000000) scale(-1, 1) translate(-589.000000, -257.000000) "></path>
        </g>
    </g>
</svg>