<svg width="20" height="14" viewBox="0 0 20 14" fill="none" xmlns="http://www.w3.org/2000/svg">
<path fill-rule="evenodd" clip-rule="evenodd" d="M19.3 0C19.6866 0 20 0.313401 20 0.7V6.7V13.3C20 13.6866 19.6866 14 19.3 14C18.9134 14 18.6 13.6866 18.6 13.3V8.42983L11.6261 12.4562C11.2913 12.6495 10.8632 12.5348 10.6699 12.2C10.4766 11.8652 10.5913 11.4371 10.9261 11.2438L17.5837 7.4H0.700001C0.3134 7.4 0 7.0866 0 6.7C0 6.3134 0.3134 6 0.700001 6H17.5837L10.9261 2.15622C10.5913 1.96292 10.4766 1.53481 10.6699 1.2C10.8632 0.865195 11.2913 0.750483 11.6261 0.943782L18.6 4.97017V0.7C18.6 0.313401 18.9134 0 19.3 0Z" fill="white"/>
</svg>
