<svg width="20" height="14" viewBox="0 0 20 14" fill="none" xmlns="http://www.w3.org/2000/svg">
<path fill-rule="evenodd" clip-rule="evenodd" d="M0.7 0C0.313401 0 0 0.313401 0 0.7V6.7V13.3C0 13.6866 0.313401 14 0.7 14C1.0866 14 1.4 13.6866 1.4 13.3V8.42983L8.37391 12.4562C8.70871 12.6495 9.13683 12.5348 9.33013 12.2C9.52343 11.8652 9.40871 11.4371 9.07391 11.2438L2.41628 7.4H19.3C19.6866 7.4 20 7.0866 20 6.7C20 6.3134 19.6866 6 19.3 6H2.41628L9.07391 2.15622C9.40871 1.96292 9.52343 1.53481 9.33013 1.2C9.13683 0.865195 8.70871 0.750483 8.37391 0.943782L1.4 4.97017V0.7C1.4 0.313401 1.0866 0 0.7 0Z" fill="white"/>
</svg>
