<?xml version="1.0" encoding="UTF-8"?>
<svg width="20px" height="14px" viewBox="0 0 20 14" version="1.1" xmlns="http://www.w3.org/2000/svg" xmlns:xlink="http://www.w3.org/1999/xlink">
    <title>arrow_left</title>
    <g id="Ver2" stroke="none" stroke-width="1" fill="none" fill-rule="evenodd" fill-opacity="0.8" opacity="0.4">
        <g id="A0-Copy-2" transform="translate(-552.000000, -220.000000)" fill="#FFFFFF">
            <path d="M552.7,220 C553.086599,220 553.4,220.313401 553.4,220.7 L553.4,224.969 L560.373909,220.943782 C560.708714,220.750483 561.136827,220.865195 561.330127,221.2 C561.523427,221.534805 561.408714,221.962918 561.073909,222.156218 L554.416,226 L571.3,226 C571.686599,226 572,226.313401 572,226.7 C572,227.086599 571.686599,227.4 571.3,227.4 L554.417,227.4 L561.073909,231.243782 C561.408714,231.437082 561.523427,231.865195 561.330127,232.2 C561.136827,232.534805 560.708714,232.649517 560.373909,232.456218 L553.4,228.43 L553.4,233.3 C553.4,233.686599 553.086599,234 552.7,234 C552.313401,234 552,233.686599 552,233.3 L552,220.7 C552,220.313401 552.313401,220 552.7,220 Z" id="arrow_left"></path>
        </g>
    </g>
</svg>