<?xml version="1.0" encoding="UTF-8"?>
<svg width="20px" height="14px" viewBox="0 0 20 14" version="1.1" xmlns="http://www.w3.org/2000/svg" xmlns:xlink="http://www.w3.org/1999/xlink">
    <title>arrow_left_highlighted</title>
    <g id="Ver2" stroke="none" stroke-width="1" fill="none" fill-rule="evenodd" fill-opacity="0.8">
        <g id="A0-Copy-2" transform="translate(-553.000000, -235.000000)" fill="#FFFFFF">
            <path d="M554,235 C554.552285,235 555,235.447715 555,236 L555,239.576 L560.964102,236.133975 C561.442394,235.857832 562.053985,236.021707 562.330127,236.5 C562.606269,236.978293 562.442394,237.589883 561.964102,237.866025 L556.535,241 L572,241 C572.552285,241 573,241.447715 573,242 C573,242.552285 572.552285,243 572,243 L556.537,243 L561.964102,246.133975 C562.442394,246.410117 562.606269,247.021707 562.330127,247.5 C562.053985,247.978293 561.442394,248.142168 560.964102,247.866025 L555,244.423 L555,248 C555,248.552285 554.552285,249 554,249 C553.447715,249 553,248.552285 553,248 L553,236 C553,235.447715 553.447715,235 554,235 Z" id="arrow_left_highlighted"></path>
        </g>
    </g>
</svg>