<svg width="20" height="14" viewBox="0 0 20 14" fill="none" xmlns="http://www.w3.org/2000/svg">
<path fill-rule="evenodd" clip-rule="evenodd" d="M7 0C3.134 0 0 3.134 0 7C0 10.866 3.134 14 7 14H13C16.866 14 20 10.866 20 7C20 3.134 16.866 0 13 0H7ZM11.37 1.63301C11.5081 1.39386 11.8139 1.31192 12.053 1.45L13.7851 2.45C14.0242 2.58807 14.1061 2.89386 13.9681 3.13301L13.2181 4.43205L10.62 2.93205L11.37 1.63301ZM10.12 3.79808L12.7181 5.29808L9.38474 11.0716C9.27655 11.259 9.1105 11.4062 8.91153 11.4912L7.5321 12.0804C7.22557 12.2114 6.87917 12.0114 6.83929 11.6804L6.65987 10.1912C6.63399 9.97638 6.67848 9.75896 6.78667 9.57158L10.12 3.79808Z" fill="white"/>
</svg>
