<svg width="30" height="30" viewBox="0 0 30 30" fill="none" xmlns="http://www.w3.org/2000/svg">
<rect width="30" height="30" rx="6" fill="black"/>
<path fill-rule="evenodd" clip-rule="evenodd" d="M6 0C2.68628 0 0 2.68628 0 6V24C0 27.3137 2.68628 30 6 30H24C27.3137 30 30 27.3137 30 24V6C30 2.68628 27.3137 0 24 0H6ZM14.1362 20.5192C14.5221 21.1807 15.4779 21.1807 15.8638 20.5192L21.1227 11.5038C21.5116 10.8372 21.0308 10 20.259 10H9.74103C8.96924 10 8.48837 10.8372 8.87726 11.5038L14.1362 20.5192Z" fill="white"/>
</svg>
