<svg width="28" height="22" viewBox="0 0 28 22" fill="none" xmlns="http://www.w3.org/2000/svg">
<path fill-rule="evenodd" clip-rule="evenodd" d="M2.55279 4.89443C2.73705 4.5259 3.26295 4.5259 3.44721 4.89443L5.6382 9.27639C5.80442 9.60884 5.56267 10 5.19098 10H0.809017C0.437326 10 0.195578 9.60884 0.361803 9.27639L2.55279 4.89443Z" fill="white"/>
<path fill-rule="evenodd" clip-rule="evenodd" d="M25.4472 17.1056C25.263 17.4741 24.737 17.4741 24.5528 17.1056L22.3618 12.7236C22.1956 12.3912 22.4373 12 22.809 12H27.191C27.5627 12 27.8044 12.3912 27.6382 12.7236L25.4472 17.1056Z" fill="white"/>
<path fill-rule="evenodd" clip-rule="evenodd" d="M22 2H4H2V0H4H22C24.2091 0 26 1.79086 26 4V12H24V4C24 2.89543 23.1046 2 22 2ZM26 20H24H6C4.89543 20 4 19.1046 4 18V10H2V18C2 20.2091 3.79086 22 6 22H24H26V20Z" fill="white"/>
<rect x="13" y="6" width="2" height="10" rx="1" fill="white"/>
</svg>
