<?xml version="1.0" encoding="UTF-8"?>
<svg width="26px" height="30px" viewBox="0 0 26 30" version="1.1" xmlns="http://www.w3.org/2000/svg" xmlns:xlink="http://www.w3.org/1999/xlink">
    <title>marker_add_highlighted</title>
    <g id="Ver2" stroke="none" stroke-width="1" fill="none" fill-rule="evenodd" fill-opacity="0.8">
        <g id="A6" transform="translate(-1408.000000, -872.000000)" fill="#FFFFFF">
            <g id="marker_add_highlighted" transform="translate(1408.000000, 872.000000)">
                <path d="M19,16 C22.8659932,16 26,19.1340068 26,23 C26,26.8659932 22.8659932,30 19,30 C15.1340068,30 12,26.8659932 12,23 C12,19.1340068 15.1340068,16 19,16 Z M19,19 C18.4477153,19 18,19.4477153 18,20 L18,20 L18,22 L16,22 C15.4477153,22 15,22.4477153 15,23 C15,23.5522847 15.4477153,24 16,24 L16,24 L18,24 L18,26 C18,26.5522847 18.4477153,27 19,27 C19.5522847,27 20,26.5522847 20,26 L20,26 L20,24 L22,24 C22.5522847,24 23,23.5522847 23,23 C23,22.4477153 22.5522847,22 22,22 L22,22 L20,22 L20,20 C20,19.4477153 19.5522847,19 19,19 Z" id="Combined-Shape"></path>
                <path d="M6,0 C8.209139,-4.05812251e-16 10,1.790861 10,4 L10,14 C10,15.8635652 8.72560224,17.429479 7.00076134,17.8737865 L7,30 L3,30 L3.00024347,17.8740452 C1.27489272,17.4300871 2.28265236e-16,15.8639271 0,14 L0,4 C-2.705415e-16,1.790861 1.790861,4.05812251e-16 4,0 L6,0 Z" id="Combined-Shape"></path>
            </g>
        </g>
    </g>
</svg>