<svg width="30" height="30" viewBox="0 0 30 30" fill="none" xmlns="http://www.w3.org/2000/svg">
<rect width="30" height="30" rx="6" fill="black"/>
<path fill-rule="evenodd" clip-rule="evenodd" d="M0 6C0 2.68629 2.68629 0 6 0H24C27.3137 0 30 2.68629 30 6V24C30 27.3137 27.3137 30 24 30H6C2.68629 30 0 27.3137 0 24V6ZM12.5145 9.9087L19.5708 14.1425C20.2182 14.5309 20.2182 15.4691 19.5708 15.8575L12.5145 20.0913C11.848 20.4912 11 20.0111 11 19.2338V10.7662C11 9.9889 11.848 9.50878 12.5145 9.9087ZM24 15C24 19.9706 19.9706 24 15 24C10.0294 24 6 19.9706 6 15C6 10.0294 10.0294 6 15 6C19.9706 6 24 10.0294 24 15ZM26 15C26 21.0751 21.0751 26 15 26C8.92487 26 4 21.0751 4 15C4 8.92487 8.92487 4 15 4C21.0751 4 26 8.92487 26 15Z" fill="white"/>
</svg>
