<svg width="30" height="30" viewBox="0 0 30 30" fill="none" xmlns="http://www.w3.org/2000/svg">
<rect width="30" height="30" rx="6" fill="black"/>
<path fill-rule="evenodd" clip-rule="evenodd" d="M6 0C2.68629 0 0 2.68629 0 6V24C0 27.3137 2.68629 30 6 30H24C27.3137 30 30 27.3137 30 24V6C30 2.68629 27.3137 0 24 0H6ZM13 6V10C13 10.5523 12.5523 11 12 11H8L13 6ZM16 8V10C16 12.2091 14.2091 14 12 14H10V22H20V8H16ZM14 10C14 11.1046 13.1046 12 12 12H10H8V14V22C8 23.1046 8.89543 24 10 24H20C21.1046 24 22 23.1046 22 22V8C22 6.89543 21.1046 6 20 6H16H14V8V10Z" fill="white"/>
</svg>
