<svg width="30" height="30" viewBox="0 0 30 30" fill="none" xmlns="http://www.w3.org/2000/svg">
<rect width="30" height="30" rx="6" fill="black"/>
<path fill-rule="evenodd" clip-rule="evenodd" d="M6 0C2.68629 0 0 2.68629 0 6V24C0 27.3137 2.68629 30 6 30H24C27.3137 30 30 27.3137 30 24V6C30 2.68629 27.3137 0 24 0H6ZM9.34191 10.7524C8.95139 10.3618 8.95139 9.72867 9.34191 9.33815C9.73244 8.94762 10.3656 8.94762 10.7561 9.33815L14.9988 13.5808L19.2414 9.33815C19.6319 8.94762 20.2651 8.94762 20.6556 9.33815C21.0461 9.72867 21.0461 10.3618 20.6556 10.7524L16.413 14.995L20.6556 19.2376C21.0461 19.6282 21.0461 20.2613 20.6556 20.6519C20.2651 21.0424 19.6319 21.0424 19.2414 20.6519L14.9988 16.4092L10.7561 20.6519C10.3656 21.0424 9.73244 21.0424 9.34191 20.6519C8.95139 20.2613 8.95139 19.6282 9.34191 19.2376L13.5846 14.995L9.34191 10.7524Z" fill="white"/>
</svg>
