<svg width="30" height="30" viewBox="0 0 30 30" fill="none" xmlns="http://www.w3.org/2000/svg">
<rect width="30" height="30" rx="6" fill="black"/>
<path fill-rule="evenodd" clip-rule="evenodd" d="M6 0C2.68628 0 0 2.68628 0 6V24C0 27.3137 2.68628 30 6 30H24C27.3137 30 30 27.3137 30 24V6C30 2.68628 27.3137 0 24 0H6ZM14 8C14 7.44769 14.4477 7 15 7C15.5523 7 16 7.44769 16 8V14H22C22.5523 14 23 14.4477 23 15C23 15.5523 22.5523 16 22 16H16V22C16 22.5523 15.5523 23 15 23C14.4477 23 14 22.5523 14 22V16H8C7.44772 16 7 15.5523 7 15C7 14.4477 7.44772 14 8 14H14V8Z" fill="white"/>
</svg>
