<?xml version="1.0" encoding="UTF-8"?>
<svg width="26px" height="30px" viewBox="0 0 26 30" version="1.1" xmlns="http://www.w3.org/2000/svg" xmlns:xlink="http://www.w3.org/1999/xlink">
    <title>playlist_add_playing_highlighted</title>
    <g id="Ver2" stroke="none" stroke-width="1" fill="none" fill-rule="evenodd">
        <g id="A6" transform="translate(-1449.000000, -873.000000)">
            <g id="playlist_add_playing_highlighted" transform="translate(1449.000000, 873.000000)">
                <path d="M19,16 C22.8659932,16 26,19.1340068 26,23 C26,26.8659932 22.8659932,30 19,30 C15.1340068,30 12,26.8659932 12,23 C12,19.1340068 15.1340068,16 19,16 Z M19,19 C18.4477153,19 18,19.4477153 18,20 L18,20 L18,22 L16,22 C15.4477153,22 15,22.4477153 15,23 C15,23.5522847 15.4477153,24 16,24 L16,24 L18,24 L18,26 C18,26.5522847 18.4477153,27 19,27 C19.5522847,27 20,26.5522847 20,26 L20,26 L20,24 L22,24 C22.5522847,24 23,23.5522847 23,23 C23,22.4477153 22.5522847,22 22,22 L22,22 L20,22 L20,20 C20,19.4477153 19.5522847,19 19,19 Z" id="Combined-Shape" fill-opacity="0.8" fill="#FFFFFF"></path>
                <path d="M12,0.5 C15.1756373,0.5 18.0506373,1.78718134 20.131728,3.86827202 C22.2128187,5.94936269 23.5,8.82436269 23.5,12 C23.5,13.2129308 23.3123225,14.3820286 22.9640482,15.4794775 C21.780564,14.8540406 20.4316401,14.5 19,14.5 C16.6527898,14.5 14.5277898,15.4513949 12.9895924,16.9895924 C11.4513949,18.5277898 10.5,20.6527898 10.5,23 C7.77173607,23.0505786 5.33601003,21.7331954 3.55282854,19.8038307 C1.65792344,17.7535834 0.5,15.0120085 0.5,12 C0.5,8.82436269 1.78718134,5.94936269 3.86827202,3.86827202 C5.94936269,1.78718134 8.82436269,0.5 12,0.5 Z" id="Combined-Shape" stroke-opacity="0.8" stroke="#FFFFFF"></path>
                <polygon id="Triangle" fill-opacity="0.8" fill="#FFFFFF" transform="translate(12.500000, 11.500000) rotate(90.000000) translate(-12.500000, -11.500000) " points="12.5 8 16 15 9 15"></polygon>
            </g>
        </g>
    </g>
</svg>