<?xml version="1.0" encoding="UTF-8"?>
<svg width="26px" height="30px" viewBox="0 0 26 30" version="1.1" xmlns="http://www.w3.org/2000/svg" xmlns:xlink="http://www.w3.org/1999/xlink">
    <title>playlist_add</title>
    <g id="Ver2" stroke="none" stroke-width="1" fill="none" fill-rule="evenodd" opacity="0.400948661">
        <g id="A6" transform="translate(-1255.000000, -915.000000)">
            <g id="playlist_add" transform="translate(1255.000000, 915.000000)">
                <path d="M18,0.5 C18.4142136,0.5 18.7892136,0.667893219 19.0606602,0.939339828 C19.3321068,1.21078644 19.5,1.58578644 19.5,2.00003656 L19.5,2.00003656 L19.500915,14.5145296 C19.3351741,14.5048888 19.1681578,14.5 19,14.5 C16.6527898,14.5 14.5277898,15.4513949 12.9895924,16.9895924 C11.4513949,18.5277898 10.5,20.6527898 10.5,23 C10.5,23.1681518 10.5048885,23.3351623 10.5145285,23.5008974 L10.5145285,23.5008974 L2,23.5 C1.58578644,23.5 1.21078644,23.3321068 0.939339828,23.0606602 C0.667893219,22.7892136 0.5,22.4142136 0.5,22 L0.5,22 L0.5,2 C0.5,1.58578644 0.667893219,1.21078644 0.939339828,0.939339828 C1.21078644,0.667893219 1.58578644,0.5 2,0.5 L2,0.5 Z" id="Combined-Shape" stroke-opacity="0.8" stroke="#FFFFFF"></path>
                <rect id="Rectangle" stroke-opacity="0.8" stroke="#FFFFFF" x="9.5" y="4.5" width="7" height="1" rx="0.5"></rect>
                <rect id="Rectangle" stroke-opacity="0.8" stroke="#FFFFFF" x="9.5" y="7.5" width="7" height="1" rx="0.5"></rect>
                <rect id="Rectangle" stroke-opacity="0.8" stroke="#FFFFFF" x="3.5" y="10.5" width="13" height="1" rx="0.5"></rect>
                <rect id="Rectangle" stroke-opacity="0.8" stroke="#FFFFFF" x="3.5" y="13.5" width="7" height="1" rx="0.5"></rect>
                <rect id="Rectangle" stroke-opacity="0.8" stroke="#FFFFFF" x="3.5" y="16.5" width="7" height="1" rx="0.5"></rect>
                <polygon id="Triangle" fill-opacity="0.8" fill="#FFFFFF" transform="translate(6.000000, 6.000000) rotate(90.000000) translate(-6.000000, -6.000000) " points="6 4 8 8 4 8"></polygon>
                <path d="M19,16 C22.8659932,16 26,19.1340068 26,23 C26,26.8659932 22.8659932,30 19,30 C15.1340068,30 12,26.8659932 12,23 C12,19.1340068 15.1340068,16 19,16 Z M19,19 C18.4477153,19 18,19.4477153 18,20 L18,20 L18,22 L16,22 C15.4477153,22 15,22.4477153 15,23 C15,23.5522847 15.4477153,24 16,24 L16,24 L18,24 L18,26 C18,26.5522847 18.4477153,27 19,27 C19.5522847,27 20,26.5522847 20,26 L20,26 L20,24 L22,24 C22.5522847,24 23,23.5522847 23,23 C23,22.4477153 22.5522847,22 22,22 L22,22 L20,22 L20,20 C20,19.4477153 19.5522847,19 19,19 Z" id="Combined-Shape" fill-opacity="0.8" fill="#FFFFFF"></path>
            </g>
        </g>
    </g>
</svg>