<?xml version="1.0" encoding="UTF-8"?>
<svg width="26px" height="30px" viewBox="0 0 26 30" version="1.1" xmlns="http://www.w3.org/2000/svg" xmlns:xlink="http://www.w3.org/1999/xlink">
    <title>playlist_remove</title>
    <g id="Ver2" stroke="none" stroke-width="1" fill="none" fill-rule="evenodd" opacity="0.400948661">
        <g id="A6" transform="translate(-1329.000000, -915.000000)">
            <g id="playlist_remove" transform="translate(1329.000000, 915.000000)">
                <g id="Group-5">
                    <path d="M18,0.5 C18.4142136,0.5 18.7892136,0.667893219 19.0606602,0.939339828 C19.3321068,1.21078644 19.5,1.58578644 19.5,2.00003656 L19.5,2.00003656 L19.500915,14.5145296 C19.3351741,14.5048888 19.1681578,14.5 19,14.5 C16.6527898,14.5 14.5277898,15.4513949 12.9895924,16.9895924 C11.4513949,18.5277898 10.5,20.6527898 10.5,23 C10.5,23.1681518 10.5048885,23.3351623 10.5145285,23.5008974 L10.5145285,23.5008974 L2,23.5 C1.58578644,23.5 1.21078644,23.3321068 0.939339828,23.0606602 C0.667893219,22.7892136 0.5,22.4142136 0.5,22 L0.5,22 L0.5,2 C0.5,1.58578644 0.667893219,1.21078644 0.939339828,0.939339828 C1.21078644,0.667893219 1.58578644,0.5 2,0.5 L2,0.5 Z" id="Combined-Shape" stroke-opacity="0.8" stroke="#FFFFFF"></path>
                    <rect id="Rectangle" stroke-opacity="0.8" stroke="#FFFFFF" x="9.5" y="4.5" width="7" height="1" rx="0.5"></rect>
                    <rect id="Rectangle" stroke-opacity="0.8" stroke="#FFFFFF" x="9.5" y="7.5" width="7" height="1" rx="0.5"></rect>
                    <rect id="Rectangle" stroke-opacity="0.8" stroke="#FFFFFF" x="3.5" y="10.5" width="13" height="1" rx="0.5"></rect>
                    <rect id="Rectangle" stroke-opacity="0.8" stroke="#FFFFFF" x="3.5" y="13.5" width="7" height="1" rx="0.5"></rect>
                    <rect id="Rectangle" stroke-opacity="0.8" stroke="#FFFFFF" x="3.5" y="16.5" width="7" height="1" rx="0.5"></rect>
                    <polygon id="Triangle" fill-opacity="0.8" fill="#FFFFFF" transform="translate(6.000000, 6.000000) rotate(90.000000) translate(-6.000000, -6.000000) " points="6 4 8 8 4 8"></polygon>
                </g>
                <path d="M19,16 C22.8659932,16 26,19.1340068 26,23 C26,26.8659932 22.8659932,30 19,30 C15.1340068,30 12,26.8659932 12,23 C12,19.1340068 15.1340068,16 19,16 Z M17.5857864,20.1715729 C17.1952621,19.7810486 16.5620972,19.7810486 16.1715729,20.1715729 C15.7810486,20.5620972 15.7810486,21.1952621 16.1715729,21.5857864 L16.1715729,21.5857864 L17.5857864,23 L16.1715729,24.4142136 C15.7810486,24.8047379 15.7810486,25.4379028 16.1715729,25.8284271 C16.5620972,26.2189514 17.1952621,26.2189514 17.5857864,25.8284271 L17.5857864,25.8284271 L19,24.4142136 L20.4142136,25.8284271 C20.8047379,26.2189514 21.4379028,26.2189514 21.8284271,25.8284271 C22.2189514,25.4379028 22.2189514,24.8047379 21.8284271,24.4142136 L21.8284271,24.4142136 L20.4142136,23 L21.8284271,21.5857864 C22.2189514,21.1952621 22.2189514,20.5620972 21.8284271,20.1715729 C21.4379028,19.7810486 20.8047379,19.7810486 20.4142136,20.1715729 L20.4142136,20.1715729 L19,21.5857864 Z" id="Combined-Shape" fill-opacity="0.8" fill="#FFFFFF"></path>
            </g>
        </g>
    </g>
</svg>