<svg width="30" height="30" viewBox="0 0 30 30" fill="none" xmlns="http://www.w3.org/2000/svg">
<rect width="30" height="30" rx="6" fill="black"/>
<path fill-rule="evenodd" clip-rule="evenodd" d="M0 6C0 2.68629 2.68629 0 6 0H24C27.3137 0 30 2.68629 30 6V24C30 27.3137 27.3137 30 24 30H6C2.68629 30 0 27.3137 0 24V6ZM13 3L6 10H12C12.5523 10 13 9.55228 13 9V3ZM15.7143 8.66667V5H22V18.1C19.7178 18.5633 18 20.581 18 23C18 23.3425 18.0344 23.6769 18.1 24H8V12.6667H11.7143C13.9234 12.6667 15.7143 10.8758 15.7143 8.66667ZM18.9996 26H8C6.89543 26 6 25.1046 6 24V12.6667V10.6667H8H11.7143C12.8189 10.6667 13.7143 9.77124 13.7143 8.66667V5V3H15.7143H22C23.1046 3 24 3.89543 24 5V18.1C26.2822 18.5633 28 20.581 28 23C28 25.7614 25.7614 28 23 28C21.3642 28 19.9118 27.2144 18.9996 26Z" fill="white"/>
<path fill-rule="evenodd" clip-rule="evenodd" d="M23 20C22.7239 20 22.5 20.2239 22.5 20.5V22.5H20.5C20.2239 22.5 20 22.7239 20 23C20 23.2761 20.2239 23.5 20.5 23.5H22.5V25.5C22.5 25.7761 22.7239 26 23 26C23.2761 26 23.5 25.7761 23.5 25.5V23.5H25.5C25.7761 23.5 26 23.2761 26 23C26 22.7239 25.7761 22.5 25.5 22.5H23.5V20.5C23.5 20.2239 23.2761 20 23 20Z" fill="white"/>
</svg>
