<svg width="30" height="30" viewBox="0 0 30 30" fill="none" xmlns="http://www.w3.org/2000/svg">
<rect width="30" height="30" rx="6" fill="black"/>
<path fill-rule="evenodd" clip-rule="evenodd" d="M6 0C2.68629 0 0 2.68629 0 6V24C0 27.3137 2.68629 30 6 30H24C27.3137 30 30 27.3137 30 24V6C30 2.68629 27.3137 0 24 0H6ZM18.7784 5.52512C18.5393 5.38705 18.2335 5.46899 18.0954 5.70813L16.8787 7.81561L20.3659 9.82896L19.89 10.6532L16.4028 8.63985L10.2996 19.211L10.2914 19.2246C9.68897 20.2681 9.14978 23.2154 10.0216 23.7188C10.8935 24.2222 13.2182 22.2091 13.7788 21.2381L13.779 21.2382L21.5828 7.72159C21.7209 7.48245 21.639 7.17665 21.3998 7.03858L18.7784 5.52512Z" fill="white"/>
</svg>
