<svg width="30" height="30" viewBox="0 0 30 30" fill="none" xmlns="http://www.w3.org/2000/svg">
<rect width="30" height="30" rx="6" fill="black"/>
<path fill-rule="evenodd" clip-rule="evenodd" d="M0 6C0 2.68629 2.68629 0 6 0H24C27.3137 0 30 2.68629 30 6V24C30 27.3137 27.3137 30 24 30H6C2.68629 30 0 27.3137 0 24V6ZM13 3L6 10H12C12.5523 10 13 9.55228 13 9V3ZM15.7143 8.66667V5H22V17.0224C19.1968 17.275 17 19.631 17 22.5C17 23.02 17.0722 23.5232 17.207 24H8V12.6667H11.7143C13.9234 12.6667 15.7143 10.8758 15.7143 8.66667ZM18.2572 26H8C6.89543 26 6 25.1046 6 24V12.6667V10.6667H8H11.7143C12.8189 10.6667 13.7143 9.77124 13.7143 8.66667V5V3H15.7143H22C23.1046 3 24 3.89543 24 5V17.207C26.3085 17.86 28 19.9824 28 22.5C28 25.5376 25.5376 28 22.5 28C20.7921 28 19.266 27.2215 18.2572 26Z" fill="white"/>
<path fill-rule="evenodd" clip-rule="evenodd" d="M22.5 19C22.2239 19 22 19.2239 22 19.5V22H19.5C19.2239 22 19 22.2239 19 22.5C19 22.7761 19.2239 23 19.5 23H22V25.5C22 25.7761 22.2239 26 22.5 26C22.7761 26 23 25.7761 23 25.5V23H25.5C25.7761 23 26 22.7761 26 22.5C26 22.2239 25.7761 22 25.5 22H23V19.5C23 19.2239 22.7761 19 22.5 19Z" fill="white"/>
</svg>
