<svg width="20" height="14" viewBox="0 0 20 14" fill="none" xmlns="http://www.w3.org/2000/svg">
<path fill-rule="evenodd" clip-rule="evenodd" d="M7 0C3.134 0 0 3.13401 0 7C0 10.866 3.134 14 7 14H13C16.866 14 20 10.866 20 7C20 3.13401 16.866 0 13 0H7ZM5 6C4.44771 6 4 6.44772 4 7C4 7.55228 4.44771 8 5 8H9C9.55229 8 10 7.55228 10 7C10 6.44772 9.55229 6 9 6H5ZM16 7C16 7.55228 15.5523 8 15 8C14.4477 8 14 7.55228 14 7C14 6.44772 14.4477 6 15 6C15.5523 6 16 6.44772 16 7ZM12 8C12.5523 8 13 7.55228 13 7C13 6.44772 12.5523 6 12 6C11.4477 6 11 6.44772 11 7C11 7.55228 11.4477 8 12 8Z" fill="white"/>
</svg>
