<svg width="30" height="30" viewBox="0 0 30 30" fill="none" xmlns="http://www.w3.org/2000/svg">
<rect width="30" height="30" rx="6" fill="black"/>
<path fill-rule="evenodd" clip-rule="evenodd" d="M6 0C2.68628 0 0 2.68628 0 6V24C0 27.3137 2.68628 30 6 30H24C27.3137 30 30 27.3137 30 24V6C30 2.68628 27.3137 0 24 0H6ZM15.8638 9.48077C15.4779 8.81927 14.5221 8.81927 14.1362 9.48077L8.87726 18.4962C8.48837 19.1628 8.96924 20 9.74103 20H20.259C21.0308 20 21.5116 19.1628 21.1227 18.4962L15.8638 9.48077Z" fill="white"/>
</svg>
