<?xml version="1.0" encoding="UTF-8"?>
<svg width="18px" height="18px" viewBox="0 0 18 18" version="1.1" xmlns="http://www.w3.org/2000/svg" xmlns:xlink="http://www.w3.org/1999/xlink">
    <title>add</title>
    <g id="Ver2" stroke="none" stroke-width="1" fill="none" fill-rule="evenodd">
        <g id="A6" transform="translate(-1525.000000, -992.000000)" fill="#FFFFFF">
            <g id="add" transform="translate(1525.000000, 992.000000)">
                <path d="M9,18 C13.9706,18 18,13.9706 18,9 C18,4.02944 13.9706,0 9,0 C4.02944,0 0,4.02944 0,9 C0,13.9706 4.02944,18 9,18 Z M8,5 C8,4.44772 8.44772,4 9,4 C9.55228,4 10,4.44772 10,5 L10,8 L13,8 C13.5523,8 14,8.44772 14,9 C14,9.55228 13.5523,10 13,10 L10,10 L10,13 C10,13.5523 9.55228,14 9,14 C8.44772,14 8,13.5523 8,13 L8,10 L5,10 C4.44772,10 4,9.55228 4,9 C4,8.44772 4.44772,8 5,8 L8,8 L8,5 Z" id="Shape"></path>
            </g>
        </g>
    </g>
</svg>