<svg width="20" height="14" viewBox="0 0 20 14" fill="none" xmlns="http://www.w3.org/2000/svg">
<path d="M0 1C0 0.447708 0.447716 0 1 0C1.55228 0 2 0.447708 2 1V13C2 13.5523 1.55228 14 1 14C0.447716 14 0 13.5523 0 13V1Z" fill="white"/>
<path d="M9.5 6V2.75853C9.5 2.35512 9.04685 2.1178 8.71525 2.34753L2.59322 6.589C2.30622 6.78784 2.30622 7.21216 2.59322 7.411L8.71525 11.6525C9.04685 11.8822 9.5 11.6449 9.5 11.2415V8L19 8C19.5523 8 20 7.55229 20 7C20 6.44771 19.5523 6 19 6L9.5 6Z" fill="white"/>
</svg>
