<svg width="20" height="14" viewBox="0 0 20 14" fill="none" xmlns="http://www.w3.org/2000/svg">
<path fill-rule="evenodd" clip-rule="evenodd" d="M7 0C3.134 0 0 3.13401 0 7C0 10.866 3.134 14 7 14H13C16.866 14 20 10.866 20 7C20 3.13401 16.866 0 13 0H7ZM6 3C6 2.44772 6.44771 2 7 2C7.55229 2 8 2.44772 8 3V8H9C9.55229 8 10 8.44772 10 9C10 9.55228 9.55229 10 9 10H8V11C8 11.5523 7.55229 12 7 12C6.44771 12 6 11.5523 6 11V10H5C4.44771 10 4 9.55228 4 9C4 8.44772 4.44771 8 5 8H6V3ZM11 4C10.4477 4 10 4.44772 10 5C10 5.55228 10.4477 6 11 6H12V11C12 11.5523 12.4477 12 13 12C13.5523 12 14 11.5523 14 11V6H15C15.5523 6 16 5.55228 16 5C16 4.44772 15.5523 4 15 4H14V3C14 2.44772 13.5523 2 13 2C12.4477 2 12 2.44772 12 3V4H11Z" fill="white"/>
</svg>
