<svg width="26" height="26" viewBox="0 0 26 26" fill="none" xmlns="http://www.w3.org/2000/svg">
<g clip-path="url(#clip0_1329_1247)">
<path d="M18 1V7C18 7.55228 18.4477 8 19 8H25" stroke="white" stroke-width="2"/>
<path fill-rule="evenodd" clip-rule="evenodd" d="M23 24H9H6.17071C6.58254 25.1652 7.69378 26 9 26H23C24.6569 26 26 24.6569 26 23V7.24264C26 6.44699 25.6839 5.68393 25.1213 5.12132L20.8787 0.87868C20.3161 0.316071 19.553 0 18.7574 0H9C7.34315 0 6 1.34315 6 3V10H8V3C8 2.44772 8.44772 2 9 2H18.7574C19.0226 2 19.2769 2.10536 19.4645 2.29289L23.7071 6.53553C23.8946 6.72307 24 6.97742 24 7.24264V23C24 23.5523 23.5523 24 23 24Z" fill="white"/>
<path fill-rule="evenodd" clip-rule="evenodd" d="M5 11C4.44772 11 4 11.4477 4 12V13V17.1707C3.68722 17.0602 3.35064 17 3 17C1.34315 17 0 18.3431 0 20C0 21.6569 1.34315 23 3 23C4.65685 23 6 21.6569 6 20V13H8C8.55229 13 9 12.5523 9 12C9 11.4477 8.55229 11 8 11H5ZM3 19C3.55228 19 4 19.4477 4 20C4 20.5523 3.55228 21 3 21C2.44772 21 2 20.5523 2 20C2 19.4477 2.44772 19 3 19Z" fill="white"/>
<rect x="7" y="17" width="5" height="2" fill="white"/>
<path d="M12 14L18 18L12 22V14Z" fill="white"/>
</g>
<defs>
<clipPath id="clip0_1329_1247">
<rect width="26" height="26" fill="white"/>
</clipPath>
</defs>
</svg>
