<svg width="100" height="60" viewBox="0 0 100 60" fill="none" xmlns="http://www.w3.org/2000/svg">
<path fill-rule="evenodd" clip-rule="evenodd" d="M11 11C10.4477 11 10 11.4477 10 12V20C10 20.5523 10.4477 21 11 21C11.5523 21 12 20.5523 12 20V13H39C39.5523 13 40 12.5523 40 12C40 11.4477 39.5523 11 39 11H11Z" fill="white"/>
<path fill-rule="evenodd" clip-rule="evenodd" d="M61 11C60.4477 11 60 11.4477 60 12C60 12.5523 60.4477 13 61 13H88V20C88 20.5523 88.4477 21 89 21C89.5523 21 90 20.5523 90 20V12C90 11.4477 89.5523 11 89 11H61Z" fill="white"/>
<rect x="20" y="22" width="3" height="20" fill="#8DBEFA"/>
<rect x="23" y="22" width="54" height="20" fill="#8DBEFA" fill-opacity="0.6"/>
<rect x="77" y="22" width="3" height="20" fill="#8DBEFA"/>
<path fill-rule="evenodd" clip-rule="evenodd" d="M50 6C49.4477 6 49 6.44772 49 7V8V12.1707C48.6872 12.0602 48.3506 12 48 12C46.3431 12 45 13.3431 45 15C45 16.6569 46.3431 18 48 18C49.6569 18 51 16.6569 51 15V8H53C53.5523 8 54 7.55228 54 7C54 6.44772 53.5523 6 53 6H50ZM48 14C48.5523 14 49 14.4477 49 15C49 15.5523 48.5523 16 48 16C47.4477 16 47 15.5523 47 15C47 14.4477 47.4477 14 48 14Z" fill="white"/>
<path fill-rule="evenodd" clip-rule="evenodd" d="M10 44C10 43.4477 10.4477 43 11 43C11.5523 43 12 43.4477 12 44V51H88V44C88 43.4477 88.4477 43 89 43C89.5523 43 90 43.4477 90 44V52C90 52.5523 89.5523 53 89 53H11H10.9999C10.4477 53 10 52.5523 10 52V44Z" fill="white"/>
</svg>
