<svg width="100" height="60" viewBox="0 0 100 60" fill="none" xmlns="http://www.w3.org/2000/svg">
<rect x="20" y="22" width="3" height="20" fill="#8DBEFA"/>
<rect x="23" y="22" width="16" height="20" fill="#8DBEFA" fill-opacity="0.6"/>
<rect x="39" y="22" width="3" height="20" fill="#8DBEFA"/>
<rect x="58" y="22" width="3" height="20" fill="#8DBEFA"/>
<rect x="61" y="22" width="16" height="20" fill="#8DBEFA" fill-opacity="0.6"/>
<rect x="77" y="22" width="3" height="20" fill="#8DBEFA"/>
<rect x="45" y="31" width="10" height="2" rx="1" fill="white"/>
<rect x="49" y="27" width="2" height="10" rx="1" fill="white"/>
<path fill-rule="evenodd" clip-rule="evenodd" d="M51 6C50.4477 6 50 6.44772 50 7V8V12.1707C49.6872 12.0602 49.3506 12 49 12C47.3431 12 46 13.3431 46 15C46 16.6569 47.3431 18 49 18C50.6569 18 52 16.6569 52 15V8H54C54.5523 8 55 7.55228 55 7C55 6.44772 54.5523 6 54 6H51ZM49 14C49.5523 14 50 14.4477 50 15C50 15.5523 49.5523 16 49 16C48.4477 16 48 15.5523 48 15C48 14.4477 48.4477 14 49 14Z" fill="white"/>
<path fill-rule="evenodd" clip-rule="evenodd" d="M58 4C57.4477 4 57 4.44772 57 5V6V10.1707C56.6872 10.0602 56.3506 10 56 10C54.3431 10 53 11.3431 53 13C53 14.6569 54.3431 16 56 16C57.6569 16 59 14.6569 59 13V6H61C61.5523 6 62 5.55228 62 5C62 4.44772 61.5523 4 61 4H58ZM56 12C56.5523 12 57 12.4477 57 13C57 13.5523 56.5523 14 56 14C55.4477 14 55 13.5523 55 13C55 12.4477 55.4477 12 56 12Z" fill="white"/>
<path fill-rule="evenodd" clip-rule="evenodd" d="M44 7C43.4477 7 43 7.44772 43 8V9V13.1707C42.6872 13.0602 42.3506 13 42 13C40.3431 13 39 14.3431 39 16C39 17.6569 40.3431 19 42 19C43.6569 19 45 17.6569 45 16V9H47C47.5523 9 48 8.55228 48 8C48 7.44772 47.5523 7 47 7H44ZM42 15C42.5523 15 43 15.4477 43 16C43 16.5523 42.5523 17 42 17C41.4477 17 41 16.5523 41 16C41 15.4477 41.4477 15 42 15Z" fill="white"/>
<path fill-rule="evenodd" clip-rule="evenodd" d="M11 11C10.4477 11 10 11.4477 10 12V20C10 20.5523 10.4477 21 11 21C11.5523 21 12 20.5523 12 20V13H34C34.5523 13 35 12.5523 35 12C35 11.4477 34.5523 11 34 11H11Z" fill="white"/>
<path fill-rule="evenodd" clip-rule="evenodd" d="M66 11C65.4477 11 65 11.4477 65 12C65 12.5523 65.4477 13 66 13H88V20C88 20.5523 88.4477 21 89 21C89.5523 21 90 20.5523 90 20V12C90 11.4477 89.5523 11 89 11H66Z" fill="white"/>
<path fill-rule="evenodd" clip-rule="evenodd" d="M10 44C10 43.4477 10.4477 43 11 43C11.5523 43 12 43.4477 12 44V51H88V44C88 43.4477 88.4477 43 89 43C89.5523 43 90 43.4477 90 44V52C90 52.5523 89.5523 53 89 53H11C10.4477 53 10 52.5523 10 52V44Z" fill="white"/>
</svg>
