<svg width="100" height="60" viewBox="0 0 100 60" fill="none" xmlns="http://www.w3.org/2000/svg">
<rect x="20" y="22" width="3" height="20" fill="#8DBEFA"/>
<rect x="23" y="22" width="16" height="20" fill="#8DBEFA" fill-opacity="0.6"/>
<rect x="39" y="22" width="3" height="20" fill="#8DBEFA"/>
<rect x="58" y="22" width="3" height="20" fill="#8DBEFA"/>
<rect x="61" y="22" width="16" height="20" fill="#8DBEFA" fill-opacity="0.6"/>
<rect x="77" y="22" width="3" height="20" fill="#8DBEFA"/>
<rect x="45" y="31" width="10" height="2" rx="1" fill="white"/>
<rect x="49" y="27" width="2" height="10" rx="1" fill="white"/>
<path fill-rule="evenodd" clip-rule="evenodd" d="M51 6C50.4477 6 50 6.44772 50 7V8V12.1707C49.6872 12.0602 49.3506 12 49 12C47.3431 12 46 13.3431 46 15C46 16.6569 47.3431 18 49 18C50.6569 18 52 16.6569 52 15V8H54C54.5523 8 55 7.55228 55 7C55 6.44772 54.5523 6 54 6H51ZM49 14C49.5523 14 50 14.4477 50 15C50 15.5523 49.5523 16 49 16C48.4477 16 48 15.5523 48 15C48 14.4477 48.4477 14 49 14Z" fill="white"/>
<path fill-rule="evenodd" clip-rule="evenodd" d="M60 4C59.4477 4 59 4.44772 59 5V6V10.1707C58.6872 10.0602 58.3506 10 58 10C56.3431 10 55 11.3431 55 13C55 14.6569 56.3431 16 58 16C59.6569 16 61 14.6569 61 13V6H63C63.5523 6 64 5.55228 64 5C64 4.44772 63.5523 4 63 4H60ZM58 12C58.5523 12 59 12.4477 59 13C59 13.5523 58.5523 14 58 14C57.4477 14 57 13.5523 57 13C57 12.4477 57.4477 12 58 12Z" fill="white"/>
<path fill-rule="evenodd" clip-rule="evenodd" d="M43 7C42.4477 7 42 7.44772 42 8V9V13.1707C41.6872 13.0602 41.3506 13 41 13C39.3431 13 38 14.3431 38 16C38 17.6569 39.3431 19 41 19C42.6569 19 44 17.6569 44 16V9H46C46.5523 9 47 8.55228 47 8C47 7.44772 46.5523 7 46 7H43ZM41 15C41.5523 15 42 15.4477 42 16C42 16.5523 41.5523 17 41 17C40.4477 17 40 16.5523 40 16C40 15.4477 40.4477 15 41 15Z" fill="white"/>
<path fill-rule="evenodd" clip-rule="evenodd" d="M11 11C10.4477 11 10 11.4477 10 12V20C10 20.5523 10.4477 21 11 21C11.5523 21 12 20.5523 12 20V13H34C34.5523 13 35 12.5523 35 12C35 11.4477 34.5523 11 34 11H11Z" fill="white"/>
<path fill-rule="evenodd" clip-rule="evenodd" d="M66 11C65.4477 11 65 11.4477 65 12C65 12.5523 65.4477 13 66 13H88V20C88 20.5523 88.4477 21 89 21C89.5523 21 90 20.5523 90 20V12C90 11.4477 89.5523 11 89 11H66Z" fill="white"/>
<path fill-rule="evenodd" clip-rule="evenodd" d="M10 44C10 43.4477 10.4477 43 11 43C11.5523 43 12 43.4477 12 44V51H88V44C88 43.4477 88.4477 43 89 43C89.5523 43 90 43.4477 90 44V52C90 52.5523 89.5523 53 89 53H11C10.4477 53 10 52.5523 10 52V44Z" fill="white"/>
</svg>
