<svg width="30" height="29" viewBox="0 0 30 29" fill="none" xmlns="http://www.w3.org/2000/svg">
<rect y="30" width="30" height="30" rx="6" transform="rotate(-90 0 30)" fill="black"/>
<path d="M0 6C0 2.68629 2.68629 4.83208e-08 6 0H24C27.3137 0 30 2.68629 30 6V24C30 27.3137 27.3137 30 24 30H6C2.68629 30 4.83192e-08 27.3137 0 24L0 6ZM9.48047 14.1357C8.81898 14.5216 8.81898 15.4784 9.48047 15.8643L18.4961 21.123C19.1627 21.5118 20 21.0305 20 20.2588V9.74121C20 8.96946 19.1627 8.48818 18.4961 8.87695L9.48047 14.1357Z" fill="white"/>
</svg>
