<svg width="134" height="50" viewBox="0 0 134 50" fill="none" xmlns="http://www.w3.org/2000/svg">
<g clip-path="url(#clip0_1411_423)">
<path d="M19.008 30.328H15.708L27.72 17.92H33.22V32H27.72V22.408L29.37 23.09L20.68 32H14.08L5.368 23.112L7.04 22.43V32H1.54V17.92H7.04L19.008 30.328ZM50.6237 28.128H55.8157C55.6837 28.9787 55.2584 29.7193 54.5397 30.35C53.8357 30.9807 52.8017 31.472 51.4377 31.824C50.0884 32.1613 48.3651 32.33 46.2677 32.33C44.0531 32.33 42.1391 32.154 40.5257 31.802C38.9271 31.45 37.6951 30.856 36.8297 30.02C35.9644 29.184 35.5317 28.0547 35.5317 26.632C35.5317 25.224 35.9497 24.102 36.7857 23.266C37.6364 22.4153 38.8611 21.8067 40.4597 21.44C42.0584 21.0733 43.9944 20.89 46.2677 20.89C48.4971 20.89 50.3231 21.088 51.7457 21.484C53.1684 21.88 54.2171 22.5253 54.8917 23.42C55.5664 24.3 55.8891 25.4953 55.8597 27.006H40.8997C40.9731 27.3873 41.1784 27.7393 41.5157 28.062C41.8677 28.3847 42.4031 28.6487 43.1217 28.854C43.8551 29.0447 44.8304 29.14 46.0477 29.14C47.3091 29.14 48.3431 29.052 49.1497 28.876C49.9711 28.7 50.4624 28.4507 50.6237 28.128ZM46.0477 24.08C44.4931 24.08 43.3051 24.2487 42.4837 24.586C41.6771 24.9233 41.2004 25.2607 41.0537 25.598H50.7337C50.6311 25.2167 50.2204 24.872 49.5017 24.564C48.7831 24.2413 47.6317 24.08 46.0477 24.08ZM57.9528 16.82H63.2328V32H57.9528V16.82ZM71.3585 15.566V18.866H65.7705V15.566H71.3585ZM65.9245 21.22H71.2045V32H65.9245V21.22ZM73.4542 28.128H78.3162C78.5216 28.5093 78.9102 28.7733 79.4822 28.92C80.0689 29.0667 80.9049 29.14 81.9902 29.14C82.8262 29.14 83.4422 29.096 83.8382 29.008C84.2489 28.92 84.5129 28.8027 84.6302 28.656C84.7622 28.5093 84.8282 28.3553 84.8282 28.194C84.8282 27.9447 84.6889 27.776 84.4102 27.688C84.1462 27.5853 83.6916 27.5267 83.0462 27.512C82.4009 27.4827 81.5136 27.468 80.3842 27.468C79.3136 27.468 78.3529 27.424 77.5022 27.336C76.6662 27.2333 75.9549 27.0793 75.3682 26.874C74.7816 26.654 74.3342 26.3533 74.0262 25.972C73.7182 25.5907 73.5642 25.114 73.5642 24.542C73.5642 23.838 73.7916 23.2513 74.2462 22.782C74.7009 22.298 75.3169 21.924 76.0942 21.66C76.8716 21.3813 77.7662 21.1833 78.7782 21.066C79.8049 20.9487 80.8756 20.89 81.9902 20.89C83.8382 20.89 85.3489 21.0807 86.5222 21.462C87.6956 21.8287 88.5609 22.3273 89.1182 22.958C89.6756 23.5887 89.9469 24.3 89.9322 25.092H85.2022C85.0409 24.7107 84.7329 24.4467 84.2782 24.3C83.8382 24.1533 83.0756 24.08 81.9902 24.08C80.9636 24.08 80.2156 24.1607 79.7462 24.322C79.2916 24.4687 79.0642 24.7107 79.0642 25.048C79.0642 25.268 79.1742 25.4367 79.3942 25.554C79.6289 25.6567 80.0616 25.73 80.6922 25.774C81.3376 25.818 82.2762 25.84 83.5082 25.84C84.3589 25.84 85.1876 25.8693 85.9942 25.928C86.8156 25.9867 87.5489 26.1113 88.1942 26.302C88.8542 26.4927 89.3749 26.786 89.7562 27.182C90.1376 27.578 90.3282 28.1207 90.3282 28.81C90.3282 29.646 89.9836 30.328 89.2942 30.856C88.6196 31.3693 87.6589 31.7433 86.4122 31.978C85.1656 32.2127 83.6916 32.33 81.9902 32.33C80.5089 32.33 79.2549 32.2347 78.2282 32.044C77.2162 31.8533 76.3876 31.604 75.7422 31.296C75.0969 30.9733 74.5982 30.6287 74.2462 30.262C73.9089 29.8807 73.6816 29.5067 73.5642 29.14C73.4616 28.7587 73.4249 28.4213 73.4542 28.128ZM91.9738 28.128H96.8358C97.0411 28.5093 97.4298 28.7733 98.0018 28.92C98.5884 29.0667 99.4244 29.14 100.51 29.14C101.346 29.14 101.962 29.096 102.358 29.008C102.768 28.92 103.032 28.8027 103.15 28.656C103.282 28.5093 103.348 28.3553 103.348 28.194C103.348 27.9447 103.208 27.776 102.93 27.688C102.666 27.5853 102.211 27.5267 101.566 27.512C100.92 27.4827 100.033 27.468 98.9038 27.468C97.8331 27.468 96.8724 27.424 96.0218 27.336C95.1858 27.2333 94.4744 27.0793 93.8878 26.874C93.3011 26.654 92.8538 26.3533 92.5457 25.972C92.2378 25.5907 92.0838 25.114 92.0838 24.542C92.0838 23.838 92.3111 23.2513 92.7658 22.782C93.2204 22.298 93.8364 21.924 94.6138 21.66C95.3911 21.3813 96.2858 21.1833 97.2978 21.066C98.3244 20.9487 99.3951 20.89 100.51 20.89C102.358 20.89 103.868 21.0807 105.042 21.462C106.215 21.8287 107.08 22.3273 107.638 22.958C108.195 23.5887 108.466 24.3 108.452 25.092H103.722C103.56 24.7107 103.252 24.4467 102.798 24.3C102.358 24.1533 101.595 24.08 100.51 24.08C99.4831 24.08 98.7351 24.1607 98.2658 24.322C97.8111 24.4687 97.5838 24.7107 97.5838 25.048C97.5838 25.268 97.6938 25.4367 97.9138 25.554C98.1484 25.6567 98.5811 25.73 99.2118 25.774C99.8571 25.818 100.796 25.84 102.028 25.84C102.878 25.84 103.707 25.8693 104.514 25.928C105.335 25.9867 106.068 26.1113 106.714 26.302C107.374 26.4927 107.894 26.786 108.276 27.182C108.657 27.578 108.848 28.1207 108.848 28.81C108.848 29.646 108.503 30.328 107.814 30.856C107.139 31.3693 106.178 31.7433 104.932 31.978C103.685 32.2127 102.211 32.33 100.51 32.33C99.0284 32.33 97.7744 32.2347 96.7477 32.044C95.7358 31.8533 94.9071 31.604 94.2618 31.296C93.6164 30.9733 93.1178 30.6287 92.7658 30.262C92.4284 29.8807 92.2011 29.5067 92.0838 29.14C91.9811 28.7587 91.9444 28.4213 91.9738 28.128ZM118.589 32.308C117.005 32.308 115.597 32.088 114.365 31.648C113.133 31.1933 112.158 30.5407 111.439 29.69C110.735 28.8393 110.383 27.8127 110.383 26.61C110.383 25.3487 110.735 24.2927 111.439 23.442C112.158 22.5913 113.133 21.9533 114.365 21.528C115.597 21.1027 117.005 20.89 118.589 20.89C120.349 20.89 121.867 21.132 123.143 21.616C124.434 22.0853 125.424 22.7527 126.113 23.618C126.817 24.4687 127.169 25.466 127.169 26.61C127.169 27.4607 126.971 28.238 126.575 28.942C126.179 29.6313 125.607 30.2327 124.859 30.746C124.111 31.2447 123.209 31.6333 122.153 31.912C121.097 32.176 119.909 32.308 118.589 32.308ZM120.569 28.964C121.684 28.964 122.703 28.898 123.627 28.766C124.566 28.6193 125.314 28.3773 125.871 28.04C126.443 27.7027 126.729 27.226 126.729 26.61C126.729 25.9793 126.443 25.4953 125.871 25.158C125.314 24.8207 124.566 24.586 123.627 24.454C122.703 24.322 121.684 24.256 120.569 24.256C119.073 24.256 117.915 24.454 117.093 24.85C116.272 25.2313 115.861 25.818 115.861 26.61C115.861 27.1233 116.045 27.556 116.411 27.908C116.778 28.26 117.313 28.524 118.017 28.7C118.721 28.876 119.572 28.964 120.569 28.964ZM126.729 21.22H132.009V32H127.037C127.037 32 127.008 31.8313 126.949 31.494C126.905 31.1567 126.854 30.6727 126.795 30.042C126.751 29.4113 126.729 28.6707 126.729 27.82V21.22Z" fill="white"/>
</g>
<defs>
<clipPath id="clip0_1411_423">
<rect width="134" height="50" fill="white"/>
</clipPath>
</defs>
</svg>
