<svg width="24" height="18" viewBox="0 0 24 18" fill="none" xmlns="http://www.w3.org/2000/svg">
<g clip-path="url(#clip0_560_926)">
<path d="M0 18C6.24857 14.4771 9 11.4557 9 9C9 7.18714 8.08714 5.14286 5.14286 5.14286C4.24286 5.14286 3.35571 5.50286 2.57143 6.00429V0H0M2.57143 13.3457V9.33429C3.36857 8.47286 4.43571 7.71429 5.14286 7.71429C5.90143 7.71429 6.42857 7.80429 6.42857 9C6.42857 9.19286 6.3 10.6714 2.57143 13.3457Z" fill="black"/>
<path d="M24 5.61538V3.30769L21.6 4V1H19.2V4.69231L16.8 5.38462V2.15385H14.4V6.07692L12 6.76923V9.07692L14.4 8.38461V10.6923L12 11.3846V13.6923L14.4 13V16H16.8V12.3077L19.2 11.6154V14.8462H21.6V10.9231L24 10.2308V7.92308L21.6 8.61538V6.30769L24 5.61538ZM19.2 9.30769L16.8 10V7.69231L19.2 7V9.30769Z" fill="black"/>
</g>
<defs>
<clipPath id="clip0_560_926">
<rect width="24" height="18" fill="white"/>
</clipPath>
</defs>
</svg>
