<svg width="30" height="30" viewBox="0 0 30 30" fill="none" xmlns="http://www.w3.org/2000/svg">
<rect width="30" height="30" rx="6" fill="black"/>
<path fill-rule="evenodd" clip-rule="evenodd" d="M6 0C2.68629 0 0 2.68629 0 6V24C0 27.3137 2.68629 30 6 30H24C27.3137 30 30 27.3137 30 24V6C30 2.68629 27.3137 0 24 0H6ZM15 24C15.7378 24 16.455 23.9112 17.1412 23.7437C17.0488 23.3441 17 22.9277 17 22.5C17 19.4624 19.4624 17 22.5 17C22.9277 17 23.3441 17.0488 23.7437 17.1412C23.9112 16.455 24 15.7378 24 15C24 10.0294 19.9706 6 15 6C10.0294 6 6 10.0294 6 15C6 19.9706 10.0294 24 15 24ZM15 26C16.0238 26 17.0148 25.8601 17.9552 25.5985C18.9456 27.0484 20.6117 28 22.5 28C25.5376 28 28 25.5376 28 22.5C28 20.6117 27.0484 18.9456 25.5985 17.9552C25.8601 17.0148 26 16.0238 26 15C26 8.92487 21.0751 4 15 4C8.92487 4 4 8.92487 4 15C4 21.0751 8.92487 26 15 26ZM19.5708 15.8575C20.2182 15.4691 20.2182 14.5309 19.5708 14.1425L12.5145 9.9087C11.848 9.50878 11 9.9889 11 10.7662V19.2338C11 20.0111 11.848 20.4912 12.5145 20.0913L19.5708 15.8575ZM22.5 19C22.1778 19 21.9167 19.2612 21.9167 19.5833V21.9167H19.5833C19.2612 21.9167 19 22.1778 19 22.5C19 22.8222 19.2612 23.0833 19.5833 23.0833H21.9167V25.4167C21.9167 25.7388 22.1778 26 22.5 26C22.8222 26 23.0833 25.7388 23.0833 25.4167V23.0833H25.4167C25.7388 23.0833 26 22.8222 26 22.5C26 22.1778 25.7388 21.9167 25.4167 21.9167H23.0833V19.5833C23.0833 19.2612 22.8222 19 22.5 19Z" fill="white"/>
</svg>
