<svg width="30" height="29" viewBox="0 0 30 29" fill="none" xmlns="http://www.w3.org/2000/svg">
<rect x="30" width="30" height="30" rx="6" transform="rotate(90 30 0)" fill="black"/>
<path d="M30 24C30 27.3137 27.3137 30 24 30H6C2.68629 30 4.83208e-08 27.3137 0 24L0 6C0 2.68629 2.68629 4.83208e-08 6 0L24 0C27.3137 0 30 2.68629 30 6V24ZM20.5195 15.8643C21.181 15.4784 21.181 14.5216 20.5195 14.1357L11.5039 8.87695C10.8373 8.48818 10 8.96946 10 9.74121L10 20.2588C10 21.0305 10.8373 21.5118 11.5039 21.123L20.5195 15.8643Z" fill="white"/>
</svg>
