<svg width="200" height="50" viewBox="0 0 200 50" fill="none" xmlns="http://www.w3.org/2000/svg">
<rect x="20" y="19" width="26" height="2" rx="1" fill="white"/>
<rect x="20" y="25" width="22" height="2" rx="1" fill="white"/>
<rect x="20" y="31" width="18" height="2" rx="1" fill="white"/>
<path d="M79.008 30.328H75.708L87.72 17.92H93.22V32H87.72V22.408L89.37 23.09L80.68 32H74.08L65.368 23.112L67.04 22.43V32H61.54V17.92H67.04L79.008 30.328ZM110.624 28.128H115.816C115.684 28.9787 115.258 29.7193 114.54 30.35C113.836 30.9807 112.802 31.472 111.438 31.824C110.088 32.1613 108.365 32.33 106.268 32.33C104.053 32.33 102.139 32.154 100.526 31.802C98.9271 31.45 97.6951 30.856 96.8297 30.02C95.9644 29.184 95.5317 28.0547 95.5317 26.632C95.5317 25.224 95.9497 24.102 96.7857 23.266C97.6364 22.4153 98.8611 21.8067 100.46 21.44C102.058 21.0733 103.994 20.89 106.268 20.89C108.497 20.89 110.323 21.088 111.746 21.484C113.168 21.88 114.217 22.5253 114.892 23.42C115.566 24.3 115.889 25.4953 115.86 27.006H100.9C100.973 27.3873 101.178 27.7393 101.516 28.062C101.868 28.3847 102.403 28.6487 103.122 28.854C103.855 29.0447 104.83 29.14 106.048 29.14C107.309 29.14 108.343 29.052 109.15 28.876C109.971 28.7 110.462 28.4507 110.624 28.128ZM106.048 24.08C104.493 24.08 103.305 24.2487 102.484 24.586C101.677 24.9233 101.2 25.2607 101.054 25.598H110.734C110.631 25.2167 110.22 24.872 109.502 24.564C108.783 24.2413 107.632 24.08 106.048 24.08ZM117.953 16.82H123.233V32H117.953V16.82ZM131.359 15.566V18.866H125.771V15.566H131.359ZM125.925 21.22H131.205V32H125.925V21.22ZM133.454 28.128H138.316C138.522 28.5093 138.91 28.7733 139.482 28.92C140.069 29.0667 140.905 29.14 141.99 29.14C142.826 29.14 143.442 29.096 143.838 29.008C144.249 28.92 144.513 28.8027 144.63 28.656C144.762 28.5093 144.828 28.3553 144.828 28.194C144.828 27.9447 144.689 27.776 144.41 27.688C144.146 27.5853 143.692 27.5267 143.046 27.512C142.401 27.4827 141.514 27.468 140.384 27.468C139.314 27.468 138.353 27.424 137.502 27.336C136.666 27.2333 135.955 27.0793 135.368 26.874C134.782 26.654 134.334 26.3533 134.026 25.972C133.718 25.5907 133.564 25.114 133.564 24.542C133.564 23.838 133.792 23.2513 134.246 22.782C134.701 22.298 135.317 21.924 136.094 21.66C136.872 21.3813 137.766 21.1833 138.778 21.066C139.805 20.9487 140.876 20.89 141.99 20.89C143.838 20.89 145.349 21.0807 146.522 21.462C147.696 21.8287 148.561 22.3273 149.118 22.958C149.676 23.5887 149.947 24.3 149.932 25.092H145.202C145.041 24.7107 144.733 24.4467 144.278 24.3C143.838 24.1533 143.076 24.08 141.99 24.08C140.964 24.08 140.216 24.1607 139.746 24.322C139.292 24.4687 139.064 24.7107 139.064 25.048C139.064 25.268 139.174 25.4367 139.394 25.554C139.629 25.6567 140.062 25.73 140.692 25.774C141.338 25.818 142.276 25.84 143.508 25.84C144.359 25.84 145.188 25.8693 145.994 25.928C146.816 25.9867 147.549 26.1113 148.194 26.302C148.854 26.4927 149.375 26.786 149.756 27.182C150.138 27.578 150.328 28.1207 150.328 28.81C150.328 29.646 149.984 30.328 149.294 30.856C148.62 31.3693 147.659 31.7433 146.412 31.978C145.166 32.2127 143.692 32.33 141.99 32.33C140.509 32.33 139.255 32.2347 138.228 32.044C137.216 31.8533 136.388 31.604 135.742 31.296C135.097 30.9733 134.598 30.6287 134.246 30.262C133.909 29.8807 133.682 29.5067 133.564 29.14C133.462 28.7587 133.425 28.4213 133.454 28.128ZM151.974 28.128H156.836C157.041 28.5093 157.43 28.7733 158.002 28.92C158.588 29.0667 159.424 29.14 160.51 29.14C161.346 29.14 161.962 29.096 162.358 29.008C162.768 28.92 163.032 28.8027 163.15 28.656C163.282 28.5093 163.348 28.3553 163.348 28.194C163.348 27.9447 163.208 27.776 162.93 27.688C162.666 27.5853 162.211 27.5267 161.566 27.512C160.92 27.4827 160.033 27.468 158.904 27.468C157.833 27.468 156.872 27.424 156.022 27.336C155.186 27.2333 154.474 27.0793 153.888 26.874C153.301 26.654 152.854 26.3533 152.546 25.972C152.238 25.5907 152.084 25.114 152.084 24.542C152.084 23.838 152.311 23.2513 152.766 22.782C153.22 22.298 153.836 21.924 154.614 21.66C155.391 21.3813 156.286 21.1833 157.298 21.066C158.324 20.9487 159.395 20.89 160.51 20.89C162.358 20.89 163.868 21.0807 165.042 21.462C166.215 21.8287 167.08 22.3273 167.638 22.958C168.195 23.5887 168.466 24.3 168.452 25.092H163.722C163.56 24.7107 163.252 24.4467 162.798 24.3C162.358 24.1533 161.595 24.08 160.51 24.08C159.483 24.08 158.735 24.1607 158.266 24.322C157.811 24.4687 157.584 24.7107 157.584 25.048C157.584 25.268 157.694 25.4367 157.914 25.554C158.148 25.6567 158.581 25.73 159.212 25.774C159.857 25.818 160.796 25.84 162.028 25.84C162.878 25.84 163.707 25.8693 164.514 25.928C165.335 25.9867 166.068 26.1113 166.714 26.302C167.374 26.4927 167.894 26.786 168.276 27.182C168.657 27.578 168.848 28.1207 168.848 28.81C168.848 29.646 168.503 30.328 167.814 30.856C167.139 31.3693 166.178 31.7433 164.932 31.978C163.685 32.2127 162.211 32.33 160.51 32.33C159.028 32.33 157.774 32.2347 156.748 32.044C155.736 31.8533 154.907 31.604 154.262 31.296C153.616 30.9733 153.118 30.6287 152.766 30.262C152.428 29.8807 152.201 29.5067 152.084 29.14C151.981 28.7587 151.944 28.4213 151.974 28.128ZM178.589 32.308C177.005 32.308 175.597 32.088 174.365 31.648C173.133 31.1933 172.158 30.5407 171.439 29.69C170.735 28.8393 170.383 27.8127 170.383 26.61C170.383 25.3487 170.735 24.2927 171.439 23.442C172.158 22.5913 173.133 21.9533 174.365 21.528C175.597 21.1027 177.005 20.89 178.589 20.89C180.349 20.89 181.867 21.132 183.143 21.616C184.434 22.0853 185.424 22.7527 186.113 23.618C186.817 24.4687 187.169 25.466 187.169 26.61C187.169 27.4607 186.971 28.238 186.575 28.942C186.179 29.6313 185.607 30.2327 184.859 30.746C184.111 31.2447 183.209 31.6333 182.153 31.912C181.097 32.176 179.909 32.308 178.589 32.308ZM180.569 28.964C181.684 28.964 182.703 28.898 183.627 28.766C184.566 28.6193 185.314 28.3773 185.871 28.04C186.443 27.7027 186.729 27.226 186.729 26.61C186.729 25.9793 186.443 25.4953 185.871 25.158C185.314 24.8207 184.566 24.586 183.627 24.454C182.703 24.322 181.684 24.256 180.569 24.256C179.073 24.256 177.915 24.454 177.093 24.85C176.272 25.2313 175.861 25.818 175.861 26.61C175.861 27.1233 176.045 27.556 176.411 27.908C176.778 28.26 177.313 28.524 178.017 28.7C178.721 28.876 179.572 28.964 180.569 28.964ZM186.729 21.22H192.009V32H187.037C187.037 32 187.008 31.8313 186.949 31.494C186.905 31.1567 186.854 30.6727 186.795 30.042C186.751 29.4113 186.729 28.6707 186.729 27.82V21.22Z" fill="white"/>
</svg>
