<?xml version="1.0" encoding="utf-8"?>
<!-- Generator: Adobe Illustrator 17.0.0, SVG Export Plug-In . SVG Version: 6.00 Build 0)  -->
<!DOCTYPE svg PUBLIC "-//W3C//DTD SVG 1.1//EN" "http://www.w3.org/Graphics/SVG/1.1/DTD/svg11.dtd">
<svg version="1.1" id="Layer_1" xmlns="http://www.w3.org/2000/svg" xmlns:xlink="http://www.w3.org/1999/xlink" x="0px" y="0px"
	 width="20px" height="31px" viewBox="0 0 20 31" enable-background="new 0 0 20 31" xml:space="preserve">
<g transform="translate(0,-952.36218)">
	<path fill="#FFFFFF" d="M10.967,982.499l8.226-7.258c0.57-0.507,0.665-1.476,0.121-2.056c-0.522-0.556-1.486-0.628-2.056-0.121
		l-5.806,5.126v-23.876c0-0.802-0.65-1.452-1.452-1.452s-1.452,0.65-1.452,1.452v23.876l-5.806-5.126
		c-0.57-0.507-1.55-0.449-2.056,0.121c-0.507,0.57-0.495,1.456,0.121,2.056l8.226,7.258c0.237,0.211,0.602,0.354,0.968,0.363
		C10.388,982.859,10.677,982.757,10.967,982.499z"/>
</g>
</svg>
